<mxfile host="Electron" agent="Mozilla/5.0 (Macintosh; Intel Mac OS X 10_15_7) AppleWebKit/537.36 (KHTML, like Gecko) draw.io/27.0.9 Chrome/134.0.6998.205 Electron/35.4.0 Safari/537.36" version="27.0.9">
  <diagram name="Page-1" id="EanCla1bgTPm3CcqNNMZ">
    <mxGraphModel dx="753" dy="638" grid="1" gridSize="10" guides="1" tooltips="1" connect="1" arrows="1" fold="1" page="1" pageScale="1" pageWidth="1169" pageHeight="827" background="none" math="0" shadow="0">
      <root>
        <mxCell id="0" />
        <mxCell id="1" parent="0" />
        <mxCell id="V3SeGW7TbHU31iKSQvi4-142" value="" style="shape=hexagon;perimeter=hexagonPerimeter2;whiteSpace=wrap;html=1;fixedSize=1;fontFamily=Helvetica;fontSize=11;labelBackgroundColor=default;size=46;" vertex="1" parent="1">
          <mxGeometry x="260" y="230" width="648" height="420" as="geometry" />
        </mxCell>
        <mxCell id="V3SeGW7TbHU31iKSQvi4-139" value="" style="shape=hexagon;perimeter=hexagonPerimeter2;whiteSpace=wrap;html=1;fixedSize=1;fontFamily=Helvetica;fontSize=11;labelBackgroundColor=default;fillColor=#fad9d5;strokeColor=#ae4132;size=46;" vertex="1" parent="1">
          <mxGeometry x="410" y="287.5" width="326" height="280" as="geometry" />
        </mxCell>
        <mxCell id="V3SeGW7TbHU31iKSQvi4-112" value="" style="orthogonalLoop=1;jettySize=auto;html=1;entryX=0.828;entryY=0.984;entryDx=0;entryDy=0;endArrow=openThin;endFill=0;entryPerimeter=0;" edge="1" parent="1" source="V3SeGW7TbHU31iKSQvi4-19" target="V3SeGW7TbHU31iKSQvi4-17">
          <mxGeometry relative="1" as="geometry" />
        </mxCell>
        <mxCell id="V3SeGW7TbHU31iKSQvi4-16" value="ENTITIES:&lt;div&gt;Subscription&lt;/div&gt;&lt;div&gt;Weather&lt;/div&gt;" style="ellipse;whiteSpace=wrap;html=1;aspect=fixed;fillColor=#fad7ac;strokeColor=#b46504;" vertex="1" parent="1">
          <mxGeometry x="503" y="468.25" width="86" height="86" as="geometry" />
        </mxCell>
        <mxCell id="V3SeGW7TbHU31iKSQvi4-17" value="Subscription&lt;div&gt;Service&lt;/div&gt;" style="rounded=0;whiteSpace=wrap;html=1;fillColor=#d0cee2;strokeColor=#56517e;" vertex="1" parent="1">
          <mxGeometry x="503" y="368" width="87" height="62" as="geometry" />
        </mxCell>
        <mxCell id="V3SeGW7TbHU31iKSQvi4-114" value="" style="orthogonalLoop=1;jettySize=auto;html=1;entryX=0.456;entryY=0.014;entryDx=0;entryDy=0;entryPerimeter=0;rounded=0;endArrow=openThin;endFill=0;" edge="1" parent="1" source="V3SeGW7TbHU31iKSQvi4-18" target="V3SeGW7TbHU31iKSQvi4-17">
          <mxGeometry relative="1" as="geometry" />
        </mxCell>
        <mxCell id="V3SeGW7TbHU31iKSQvi4-18" value="&lt;div&gt;Weather&lt;/div&gt;&lt;div&gt;Service&lt;/div&gt;" style="rounded=0;whiteSpace=wrap;html=1;fillColor=#d0cee2;strokeColor=#56517e;" vertex="1" parent="1">
          <mxGeometry x="525" y="304" width="65" height="39" as="geometry" />
        </mxCell>
        <mxCell id="V3SeGW7TbHU31iKSQvi4-19" value="&lt;div&gt;Token&lt;/div&gt;&lt;div&gt;Service&lt;/div&gt;" style="rounded=0;whiteSpace=wrap;html=1;fillColor=#d0cee2;strokeColor=#56517e;" vertex="1" parent="1">
          <mxGeometry x="614.34" y="457" width="57.05" height="35" as="geometry" />
        </mxCell>
        <mxCell id="V3SeGW7TbHU31iKSQvi4-115" style="shape=connector;rounded=0;orthogonalLoop=1;jettySize=auto;html=1;entryX=1;entryY=0.75;entryDx=0;entryDy=0;strokeColor=default;align=center;verticalAlign=middle;fontFamily=Helvetica;fontSize=11;fontColor=default;labelBackgroundColor=default;endArrow=openThin;endFill=0;" edge="1" parent="1" source="V3SeGW7TbHU31iKSQvi4-21" target="V3SeGW7TbHU31iKSQvi4-17">
          <mxGeometry relative="1" as="geometry" />
        </mxCell>
        <mxCell id="V3SeGW7TbHU31iKSQvi4-21" value="&lt;div&gt;Email&lt;/div&gt;&lt;div&gt;Service&lt;/div&gt;" style="rounded=0;whiteSpace=wrap;html=1;fillColor=#d0cee2;strokeColor=#56517e;" vertex="1" parent="1">
          <mxGeometry x="630" y="407.5" width="60" height="40" as="geometry" />
        </mxCell>
        <mxCell id="V3SeGW7TbHU31iKSQvi4-33" style="orthogonalLoop=1;jettySize=auto;html=1;exitX=1;exitY=1;exitDx=0;exitDy=0;entryX=0;entryY=0.5;entryDx=0;entryDy=0;endArrow=openThin;endFill=0;" edge="1" parent="1" source="V3SeGW7TbHU31iKSQvi4-23" target="V3SeGW7TbHU31iKSQvi4-17">
          <mxGeometry relative="1" as="geometry" />
        </mxCell>
        <mxCell id="V3SeGW7TbHU31iKSQvi4-23" value="Interface" style="ellipse;whiteSpace=wrap;html=1;" vertex="1" parent="1">
          <mxGeometry x="410" y="343" width="70" height="28" as="geometry" />
        </mxCell>
        <mxCell id="V3SeGW7TbHU31iKSQvi4-37" value="" style="endArrow=openThin;html=1;entryX=0;entryY=0.5;entryDx=0;entryDy=0;exitX=1;exitY=0;exitDx=0;exitDy=0;rounded=0;endFill=0;" edge="1" parent="1" source="V3SeGW7TbHU31iKSQvi4-23" target="V3SeGW7TbHU31iKSQvi4-18">
          <mxGeometry width="50" height="50" relative="1" as="geometry">
            <mxPoint x="453" y="380" as="sourcePoint" />
            <mxPoint x="503" y="330" as="targetPoint" />
          </mxGeometry>
        </mxCell>
        <mxCell id="V3SeGW7TbHU31iKSQvi4-42" value="Interface" style="ellipse;whiteSpace=wrap;html=1;" vertex="1" parent="1">
          <mxGeometry x="671.39" y="304" width="72.79" height="30" as="geometry" />
        </mxCell>
        <mxCell id="V3SeGW7TbHU31iKSQvi4-108" value="" style="orthogonalLoop=1;jettySize=auto;html=1;endArrow=openThin;endFill=0;" edge="1" parent="1" source="V3SeGW7TbHU31iKSQvi4-43" target="V3SeGW7TbHU31iKSQvi4-21">
          <mxGeometry relative="1" as="geometry" />
        </mxCell>
        <mxCell id="V3SeGW7TbHU31iKSQvi4-43" value="Interface" style="ellipse;whiteSpace=wrap;html=1;" vertex="1" parent="1">
          <mxGeometry x="690" y="447.5" width="70" height="24" as="geometry" />
        </mxCell>
        <mxCell id="V3SeGW7TbHU31iKSQvi4-111" value="" style="orthogonalLoop=1;jettySize=auto;html=1;endArrow=openThin;endFill=0;" edge="1" parent="1" source="V3SeGW7TbHU31iKSQvi4-44" target="V3SeGW7TbHU31iKSQvi4-19">
          <mxGeometry relative="1" as="geometry" />
        </mxCell>
        <mxCell id="V3SeGW7TbHU31iKSQvi4-44" value="Interface" style="ellipse;whiteSpace=wrap;html=1;" vertex="1" parent="1">
          <mxGeometry x="674.18" y="502.5" width="70" height="26" as="geometry" />
        </mxCell>
        <mxCell id="V3SeGW7TbHU31iKSQvi4-146" style="edgeStyle=none;shape=connector;rounded=0;orthogonalLoop=1;jettySize=auto;html=1;exitX=1;exitY=0.5;exitDx=0;exitDy=0;entryX=0;entryY=0;entryDx=0;entryDy=0;strokeColor=default;align=center;verticalAlign=middle;fontFamily=Helvetica;fontSize=11;fontColor=default;labelBackgroundColor=default;endArrow=openThin;endFill=0;" edge="1" parent="1" source="V3SeGW7TbHU31iKSQvi4-45" target="V3SeGW7TbHU31iKSQvi4-23">
          <mxGeometry relative="1" as="geometry" />
        </mxCell>
        <mxCell id="V3SeGW7TbHU31iKSQvi4-157" value="" style="edgeStyle=none;shape=connector;rounded=0;orthogonalLoop=1;jettySize=auto;html=1;strokeColor=default;align=center;verticalAlign=middle;fontFamily=Helvetica;fontSize=11;fontColor=default;labelBackgroundColor=default;endArrow=openThin;endFill=0;" edge="1" parent="1" source="V3SeGW7TbHU31iKSQvi4-45">
          <mxGeometry relative="1" as="geometry">
            <mxPoint x="220" y="322.5" as="targetPoint" />
          </mxGeometry>
        </mxCell>
        <mxCell id="V3SeGW7TbHU31iKSQvi4-45" value="HTTP handlers" style="rounded=1;whiteSpace=wrap;html=1;fillColor=#b0e3e6;strokeColor=#0e8088;" vertex="1" parent="1">
          <mxGeometry x="300" y="320" width="100" height="31" as="geometry" />
        </mxCell>
        <mxCell id="V3SeGW7TbHU31iKSQvi4-66" value="" style="endArrow=openThin;html=1;entryX=1;entryY=0.5;entryDx=0;entryDy=0;exitX=0;exitY=0.5;exitDx=0;exitDy=0;endFill=0;" edge="1" parent="1" source="V3SeGW7TbHU31iKSQvi4-42" target="V3SeGW7TbHU31iKSQvi4-18">
          <mxGeometry width="50" height="50" relative="1" as="geometry">
            <mxPoint x="672.79" y="320" as="sourcePoint" />
            <mxPoint x="722.79" y="270" as="targetPoint" />
          </mxGeometry>
        </mxCell>
        <mxCell id="V3SeGW7TbHU31iKSQvi4-88" value="" style="group" vertex="1" connectable="0" parent="1">
          <mxGeometry x="730" y="246" width="290" height="148" as="geometry" />
        </mxCell>
        <mxCell id="V3SeGW7TbHU31iKSQvi4-82" value="" style="rounded=1;whiteSpace=wrap;html=1;strokeWidth=1;fillColor=#d5e8d4;strokeColor=#82b366;" vertex="1" parent="V3SeGW7TbHU31iKSQvi4-88">
          <mxGeometry x="30" y="5" width="102.79" height="80" as="geometry" />
        </mxCell>
        <mxCell id="V3SeGW7TbHU31iKSQvi4-72" value="&lt;font style=&quot;font-size: 10px;&quot;&gt;TomottowIO&lt;/font&gt;" style="rounded=1;whiteSpace=wrap;html=1;fillColor=#d5e8d4;strokeColor=#82b366;" vertex="1" parent="V3SeGW7TbHU31iKSQvi4-88">
          <mxGeometry x="40" y="45" width="78" height="14" as="geometry" />
        </mxCell>
        <mxCell id="V3SeGW7TbHU31iKSQvi4-79" value="&lt;font style=&quot;font-size: 10px;&quot;&gt;WeatherAPI&lt;/font&gt;" style="rounded=1;whiteSpace=wrap;html=1;fillColor=#d5e8d4;strokeColor=#82b366;" vertex="1" parent="V3SeGW7TbHU31iKSQvi4-88">
          <mxGeometry x="40" y="27" width="78" height="14" as="geometry" />
        </mxCell>
        <mxCell id="V3SeGW7TbHU31iKSQvi4-80" value="&lt;font style=&quot;font-size: 10px;&quot;&gt;OpenWeather&lt;/font&gt;" style="rounded=1;whiteSpace=wrap;html=1;fillColor=#d5e8d4;strokeColor=#82b366;" vertex="1" parent="V3SeGW7TbHU31iKSQvi4-88">
          <mxGeometry x="40" y="63" width="78" height="14" as="geometry" />
        </mxCell>
        <mxCell id="V3SeGW7TbHU31iKSQvi4-87" value="&lt;font style=&quot;font-size: 11px;&quot;&gt;Providers Chain&lt;/font&gt;" style="text;html=1;align=center;verticalAlign=middle;whiteSpace=wrap;rounded=0;" vertex="1" parent="V3SeGW7TbHU31iKSQvi4-88">
          <mxGeometry x="33" width="87.21" height="30" as="geometry" />
        </mxCell>
        <mxCell id="V3SeGW7TbHU31iKSQvi4-117" value="Interface" style="ellipse;whiteSpace=wrap;html=1;fontFamily=Helvetica;fontSize=11;fontColor=default;labelBackgroundColor=default;" vertex="1" parent="V3SeGW7TbHU31iKSQvi4-88">
          <mxGeometry x="60" y="77" width="60.21" height="20" as="geometry" />
        </mxCell>
        <mxCell id="V3SeGW7TbHU31iKSQvi4-134" value="Redis" style="shape=cylinder3;whiteSpace=wrap;html=1;boundedLbl=1;backgroundOutline=1;size=15;fontFamily=Helvetica;fontSize=11;fontColor=default;labelBackgroundColor=default;" vertex="1" parent="V3SeGW7TbHU31iKSQvi4-88">
          <mxGeometry x="210" y="63" width="70" height="78" as="geometry" />
        </mxCell>
        <mxCell id="V3SeGW7TbHU31iKSQvi4-118" value="Redis Cache" style="rounded=1;whiteSpace=wrap;html=1;fontFamily=Helvetica;fontSize=11;labelBackgroundColor=none;fillColor=#d5e8d4;strokeColor=#82b366;" vertex="1" parent="V3SeGW7TbHU31iKSQvi4-88">
          <mxGeometry x="59.999999999999964" y="109.5" width="83" height="35" as="geometry" />
        </mxCell>
        <mxCell id="V3SeGW7TbHU31iKSQvi4-119" style="shape=connector;rounded=0;orthogonalLoop=1;jettySize=auto;html=1;entryX=0.5;entryY=1;entryDx=0;entryDy=0;strokeColor=default;align=center;verticalAlign=middle;fontFamily=Helvetica;fontSize=11;fontColor=default;labelBackgroundColor=default;endArrow=openThin;endFill=0;" edge="1" parent="V3SeGW7TbHU31iKSQvi4-88" source="V3SeGW7TbHU31iKSQvi4-118" target="V3SeGW7TbHU31iKSQvi4-117">
          <mxGeometry relative="1" as="geometry" />
        </mxCell>
        <mxCell id="V3SeGW7TbHU31iKSQvi4-136" style="edgeStyle=none;shape=connector;rounded=0;orthogonalLoop=1;jettySize=auto;html=1;exitX=1;exitY=0.5;exitDx=0;exitDy=0;strokeColor=default;align=center;verticalAlign=middle;fontFamily=Helvetica;fontSize=11;fontColor=default;labelBackgroundColor=default;endArrow=openThin;endFill=0;" edge="1" parent="V3SeGW7TbHU31iKSQvi4-88" source="V3SeGW7TbHU31iKSQvi4-118" target="V3SeGW7TbHU31iKSQvi4-134">
          <mxGeometry relative="1" as="geometry" />
        </mxCell>
        <mxCell id="V3SeGW7TbHU31iKSQvi4-121" value="Weather APIs" style="ellipse;shape=cloud;whiteSpace=wrap;html=1;fontFamily=Helvetica;fontSize=11;fontColor=default;labelBackgroundColor=default;" vertex="1" parent="V3SeGW7TbHU31iKSQvi4-88">
          <mxGeometry x="170" y="-25" width="120" height="80" as="geometry" />
        </mxCell>
        <mxCell id="V3SeGW7TbHU31iKSQvi4-128" style="edgeStyle=none;shape=connector;rounded=0;orthogonalLoop=1;jettySize=auto;html=1;strokeColor=default;align=center;verticalAlign=middle;fontFamily=Helvetica;fontSize=11;fontColor=default;labelBackgroundColor=default;endArrow=openThin;endFill=0;exitX=1;exitY=0.5;exitDx=0;exitDy=0;entryX=0.13;entryY=0.77;entryDx=0;entryDy=0;entryPerimeter=0;" edge="1" parent="V3SeGW7TbHU31iKSQvi4-88" source="V3SeGW7TbHU31iKSQvi4-82" target="V3SeGW7TbHU31iKSQvi4-121">
          <mxGeometry relative="1" as="geometry" />
        </mxCell>
        <mxCell id="V3SeGW7TbHU31iKSQvi4-94" value="" style="endArrow=openThin;html=1;entryX=1;entryY=0.5;entryDx=0;entryDy=0;exitX=0.007;exitY=0.58;exitDx=0;exitDy=0;exitPerimeter=0;endFill=0;" edge="1" parent="1" source="V3SeGW7TbHU31iKSQvi4-82" target="V3SeGW7TbHU31iKSQvi4-42">
          <mxGeometry width="50" height="50" relative="1" as="geometry">
            <mxPoint x="770" y="280" as="sourcePoint" />
            <mxPoint x="750" y="280" as="targetPoint" />
          </mxGeometry>
        </mxCell>
        <mxCell id="V3SeGW7TbHU31iKSQvi4-107" value="" style="orthogonalLoop=1;jettySize=auto;html=1;rounded=0;endArrow=openThin;endFill=0;" edge="1" parent="1" source="V3SeGW7TbHU31iKSQvi4-96" target="V3SeGW7TbHU31iKSQvi4-43">
          <mxGeometry relative="1" as="geometry" />
        </mxCell>
        <mxCell id="V3SeGW7TbHU31iKSQvi4-96" value="SendGrid" style="rounded=1;whiteSpace=wrap;html=1;fillColor=#d5e8d4;strokeColor=#82b366;" vertex="1" parent="1">
          <mxGeometry x="770" y="468.25" width="80" height="31.5" as="geometry" />
        </mxCell>
        <mxCell id="V3SeGW7TbHU31iKSQvi4-105" style="orthogonalLoop=1;jettySize=auto;html=1;entryX=1;entryY=0.5;entryDx=0;entryDy=0;rounded=0;endArrow=openThin;endFill=0;" edge="1" parent="1" source="V3SeGW7TbHU31iKSQvi4-97" target="V3SeGW7TbHU31iKSQvi4-17">
          <mxGeometry relative="1" as="geometry" />
        </mxCell>
        <mxCell id="V3SeGW7TbHU31iKSQvi4-97" value="Interface" style="ellipse;whiteSpace=wrap;html=1;" vertex="1" parent="1">
          <mxGeometry x="690" y="368" width="70" height="26" as="geometry" />
        </mxCell>
        <mxCell id="V3SeGW7TbHU31iKSQvi4-100" value="" style="orthogonalLoop=1;jettySize=auto;html=1;rounded=0;strokeColor=default;startArrow=none;startFill=0;endArrow=openThin;endFill=0;" edge="1" parent="1" source="V3SeGW7TbHU31iKSQvi4-98" target="V3SeGW7TbHU31iKSQvi4-97">
          <mxGeometry relative="1" as="geometry" />
        </mxCell>
        <mxCell id="V3SeGW7TbHU31iKSQvi4-98" value="&lt;span&gt;Gorm Repo&lt;/span&gt;" style="rounded=1;whiteSpace=wrap;html=1;fillColor=#d5e8d4;strokeColor=#82b366;" vertex="1" parent="1">
          <mxGeometry x="780" y="407.5" width="84" height="33" as="geometry" />
        </mxCell>
        <mxCell id="V3SeGW7TbHU31iKSQvi4-110" value="" style="orthogonalLoop=1;jettySize=auto;html=1;endArrow=openThin;endFill=0;" edge="1" parent="1" source="V3SeGW7TbHU31iKSQvi4-109" target="V3SeGW7TbHU31iKSQvi4-44">
          <mxGeometry relative="1" as="geometry" />
        </mxCell>
        <mxCell id="V3SeGW7TbHU31iKSQvi4-109" value="JWT" style="rounded=1;whiteSpace=wrap;html=1;fillColor=#d5e8d4;strokeColor=#82b366;" vertex="1" parent="1">
          <mxGeometry x="770" y="520" width="70" height="23" as="geometry" />
        </mxCell>
        <mxCell id="V3SeGW7TbHU31iKSQvi4-131" value="Postgres" style="shape=cylinder3;whiteSpace=wrap;html=1;boundedLbl=1;backgroundOutline=1;size=15;fontFamily=Helvetica;fontSize=11;fontColor=default;labelBackgroundColor=default;" vertex="1" parent="1">
          <mxGeometry x="940" y="414" width="70" height="78" as="geometry" />
        </mxCell>
        <mxCell id="V3SeGW7TbHU31iKSQvi4-133" style="edgeStyle=none;shape=connector;rounded=0;orthogonalLoop=1;jettySize=auto;html=1;strokeColor=default;align=center;verticalAlign=middle;fontFamily=Helvetica;fontSize=11;fontColor=default;labelBackgroundColor=default;endArrow=none;endFill=0;exitX=0.25;exitY=0.25;exitDx=0;exitDy=0;exitPerimeter=0;startArrow=openThin;startFill=0;" edge="1" parent="1" source="V3SeGW7TbHU31iKSQvi4-132" target="V3SeGW7TbHU31iKSQvi4-96">
          <mxGeometry relative="1" as="geometry" />
        </mxCell>
        <mxCell id="V3SeGW7TbHU31iKSQvi4-132" value="SendGrid API" style="ellipse;shape=cloud;whiteSpace=wrap;html=1;fontFamily=Helvetica;fontSize=11;fontColor=default;labelBackgroundColor=default;" vertex="1" parent="1">
          <mxGeometry x="908" y="500" width="120" height="80" as="geometry" />
        </mxCell>
        <mxCell id="V3SeGW7TbHU31iKSQvi4-135" style="edgeStyle=none;shape=connector;rounded=0;orthogonalLoop=1;jettySize=auto;html=1;exitX=1;exitY=0.5;exitDx=0;exitDy=0;entryX=0;entryY=0.5;entryDx=0;entryDy=0;entryPerimeter=0;strokeColor=default;align=center;verticalAlign=middle;fontFamily=Helvetica;fontSize=11;fontColor=default;labelBackgroundColor=default;endArrow=openThin;endFill=0;" edge="1" parent="1" source="V3SeGW7TbHU31iKSQvi4-98" target="V3SeGW7TbHU31iKSQvi4-131">
          <mxGeometry relative="1" as="geometry" />
        </mxCell>
        <mxCell id="V3SeGW7TbHU31iKSQvi4-140" style="edgeStyle=none;shape=connector;rounded=0;orthogonalLoop=1;jettySize=auto;html=1;exitX=0.5;exitY=0;exitDx=0;exitDy=0;strokeColor=default;align=center;verticalAlign=middle;fontFamily=Helvetica;fontSize=11;fontColor=default;labelBackgroundColor=default;endArrow=openThin;endFill=0;" edge="1" parent="1" source="V3SeGW7TbHU31iKSQvi4-97" target="V3SeGW7TbHU31iKSQvi4-97">
          <mxGeometry relative="1" as="geometry" />
        </mxCell>
        <mxCell id="V3SeGW7TbHU31iKSQvi4-158" style="edgeStyle=none;shape=connector;rounded=0;orthogonalLoop=1;jettySize=auto;html=1;exitX=0.25;exitY=1;exitDx=0;exitDy=0;strokeColor=default;align=center;verticalAlign=middle;fontFamily=Helvetica;fontSize=11;fontColor=default;labelBackgroundColor=default;endArrow=openThin;endFill=0;" edge="1" parent="1" source="V3SeGW7TbHU31iKSQvi4-19" target="V3SeGW7TbHU31iKSQvi4-19">
          <mxGeometry relative="1" as="geometry" />
        </mxCell>
        <mxCell id="V3SeGW7TbHU31iKSQvi4-183" style="edgeStyle=none;shape=connector;rounded=0;orthogonalLoop=1;jettySize=auto;html=1;exitX=0;exitY=0;exitDx=0;exitDy=0;entryX=0.5;entryY=1;entryDx=0;entryDy=0;strokeColor=default;align=center;verticalAlign=middle;fontFamily=Helvetica;fontSize=11;fontColor=default;labelBackgroundColor=default;endArrow=openThin;endFill=0;" edge="1" parent="1" source="V3SeGW7TbHU31iKSQvi4-160" target="V3SeGW7TbHU31iKSQvi4-165">
          <mxGeometry relative="1" as="geometry" />
        </mxCell>
        <mxCell id="V3SeGW7TbHU31iKSQvi4-160" value="Queue&lt;div&gt;(in memory)&lt;/div&gt;" style="rounded=1;whiteSpace=wrap;html=1;fillColor=#d5e8d4;strokeColor=#82b366;" vertex="1" parent="1">
          <mxGeometry x="674.18" y="590" width="70" height="33" as="geometry" />
        </mxCell>
        <mxCell id="V3SeGW7TbHU31iKSQvi4-173" style="edgeStyle=none;shape=connector;rounded=0;orthogonalLoop=1;jettySize=auto;html=1;exitX=0.75;exitY=0;exitDx=0;exitDy=0;entryX=0.329;entryY=1;entryDx=0;entryDy=0;strokeColor=default;align=center;verticalAlign=middle;fontFamily=Helvetica;fontSize=11;fontColor=default;labelBackgroundColor=default;endArrow=openThin;endFill=0;entryPerimeter=0;" edge="1" parent="1" source="V3SeGW7TbHU31iKSQvi4-161" target="V3SeGW7TbHU31iKSQvi4-168">
          <mxGeometry relative="1" as="geometry" />
        </mxCell>
        <mxCell id="V3SeGW7TbHU31iKSQvi4-179" style="edgeStyle=none;shape=connector;rounded=0;orthogonalLoop=1;jettySize=auto;html=1;entryX=0;entryY=0.5;entryDx=0;entryDy=0;strokeColor=default;align=center;verticalAlign=middle;fontFamily=Helvetica;fontSize=11;fontColor=default;labelBackgroundColor=default;endArrow=openThin;endFill=0;exitX=1;exitY=0.5;exitDx=0;exitDy=0;" edge="1" parent="1" source="V3SeGW7TbHU31iKSQvi4-161" target="V3SeGW7TbHU31iKSQvi4-160">
          <mxGeometry relative="1" as="geometry">
            <mxPoint x="589.9694178961347" y="600.2424034603505" as="sourcePoint" />
          </mxGeometry>
        </mxCell>
        <mxCell id="V3SeGW7TbHU31iKSQvi4-161" value="Worker" style="rounded=1;whiteSpace=wrap;html=1;fillColor=#b0e3e6;strokeColor=#0e8088;" vertex="1" parent="1">
          <mxGeometry x="370" y="570" width="70" height="23" as="geometry" />
        </mxCell>
        <mxCell id="V3SeGW7TbHU31iKSQvi4-172" style="edgeStyle=none;shape=connector;rounded=0;orthogonalLoop=1;jettySize=auto;html=1;exitX=0.75;exitY=0;exitDx=0;exitDy=0;entryX=0;entryY=1;entryDx=0;entryDy=0;strokeColor=default;align=center;verticalAlign=middle;fontFamily=Helvetica;fontSize=11;fontColor=default;labelBackgroundColor=default;endArrow=openThin;endFill=0;" edge="1" parent="1" source="V3SeGW7TbHU31iKSQvi4-162" target="V3SeGW7TbHU31iKSQvi4-169">
          <mxGeometry relative="1" as="geometry" />
        </mxCell>
        <mxCell id="V3SeGW7TbHU31iKSQvi4-187" style="edgeStyle=none;shape=connector;rounded=0;orthogonalLoop=1;jettySize=auto;html=1;exitX=0.5;exitY=0;exitDx=0;exitDy=0;entryX=0.5;entryY=1;entryDx=0;entryDy=0;strokeColor=default;align=center;verticalAlign=middle;fontFamily=Helvetica;fontSize=11;fontColor=default;labelBackgroundColor=default;endArrow=openThin;endFill=0;" edge="1" parent="1" source="V3SeGW7TbHU31iKSQvi4-162" target="V3SeGW7TbHU31iKSQvi4-163">
          <mxGeometry relative="1" as="geometry" />
        </mxCell>
        <mxCell id="V3SeGW7TbHU31iKSQvi4-162" value="Dispatcher" style="rounded=1;whiteSpace=wrap;html=1;fillColor=#b0e3e6;strokeColor=#0e8088;" vertex="1" parent="1">
          <mxGeometry x="330" y="520" width="70" height="23" as="geometry" />
        </mxCell>
        <mxCell id="V3SeGW7TbHU31iKSQvi4-163" value="Cron" style="rounded=1;whiteSpace=wrap;html=1;fillColor=#b0e3e6;strokeColor=#0e8088;" vertex="1" parent="1">
          <mxGeometry x="300" y="457" width="70" height="23" as="geometry" />
        </mxCell>
        <mxCell id="V3SeGW7TbHU31iKSQvi4-185" style="edgeStyle=none;shape=connector;rounded=0;orthogonalLoop=1;jettySize=auto;html=1;exitX=0.5;exitY=0;exitDx=0;exitDy=0;entryX=0.5;entryY=1;entryDx=0;entryDy=0;strokeColor=default;align=center;verticalAlign=middle;fontFamily=Helvetica;fontSize=11;fontColor=default;labelBackgroundColor=default;endArrow=openThin;endFill=0;" edge="1" parent="1" source="V3SeGW7TbHU31iKSQvi4-165" target="V3SeGW7TbHU31iKSQvi4-17">
          <mxGeometry relative="1" as="geometry" />
        </mxCell>
        <mxCell id="V3SeGW7TbHU31iKSQvi4-165" value="Interface" style="ellipse;whiteSpace=wrap;html=1;" vertex="1" parent="1">
          <mxGeometry x="614.34" y="561" width="70" height="24" as="geometry" />
        </mxCell>
        <mxCell id="V3SeGW7TbHU31iKSQvi4-166" style="edgeStyle=none;shape=connector;rounded=0;orthogonalLoop=1;jettySize=auto;html=1;exitX=0.5;exitY=1;exitDx=0;exitDy=0;strokeColor=default;align=center;verticalAlign=middle;fontFamily=Helvetica;fontSize=11;fontColor=default;labelBackgroundColor=default;endArrow=openThin;endFill=0;" edge="1" parent="1" source="V3SeGW7TbHU31iKSQvi4-162" target="V3SeGW7TbHU31iKSQvi4-162">
          <mxGeometry relative="1" as="geometry" />
        </mxCell>
        <mxCell id="V3SeGW7TbHU31iKSQvi4-177" style="edgeStyle=none;shape=connector;rounded=0;orthogonalLoop=1;jettySize=auto;html=1;strokeColor=default;align=center;verticalAlign=middle;fontFamily=Helvetica;fontSize=11;fontColor=default;labelBackgroundColor=default;endArrow=openThin;endFill=0;" edge="1" parent="1" source="V3SeGW7TbHU31iKSQvi4-168">
          <mxGeometry relative="1" as="geometry">
            <mxPoint x="530" y="430" as="targetPoint" />
          </mxGeometry>
        </mxCell>
        <mxCell id="V3SeGW7TbHU31iKSQvi4-168" value="Interface" style="ellipse;whiteSpace=wrap;html=1;" vertex="1" parent="1">
          <mxGeometry x="414" y="520" width="70" height="24" as="geometry" />
        </mxCell>
        <mxCell id="V3SeGW7TbHU31iKSQvi4-176" style="edgeStyle=none;shape=connector;rounded=0;orthogonalLoop=1;jettySize=auto;html=1;exitX=1;exitY=0;exitDx=0;exitDy=0;strokeColor=default;align=center;verticalAlign=middle;fontFamily=Helvetica;fontSize=11;fontColor=default;labelBackgroundColor=default;endArrow=openThin;endFill=0;entryX=0.25;entryY=1;entryDx=0;entryDy=0;" edge="1" parent="1" source="V3SeGW7TbHU31iKSQvi4-169" target="V3SeGW7TbHU31iKSQvi4-17">
          <mxGeometry relative="1" as="geometry" />
        </mxCell>
        <mxCell id="V3SeGW7TbHU31iKSQvi4-169" value="Interface" style="ellipse;whiteSpace=wrap;html=1;" vertex="1" parent="1">
          <mxGeometry x="400" y="476" width="70" height="24" as="geometry" />
        </mxCell>
        <mxCell id="V3SeGW7TbHU31iKSQvi4-192" value="Inbound adapter" style="rounded=1;whiteSpace=wrap;html=1;fillColor=#b0e3e6;strokeColor=#0e8088;fontSize=10;" vertex="1" parent="1">
          <mxGeometry x="160" y="563.5" width="70" height="33" as="geometry" />
        </mxCell>
        <mxCell id="V3SeGW7TbHU31iKSQvi4-193" value="Outbound&lt;div&gt;adapter&lt;/div&gt;" style="rounded=1;whiteSpace=wrap;html=1;fillColor=#d5e8d4;strokeColor=#82b366;fontSize=10;" vertex="1" parent="1">
          <mxGeometry x="160" y="611.5" width="70" height="34" as="geometry" />
        </mxCell>
        <mxCell id="V3SeGW7TbHU31iKSQvi4-194" value="Port" style="ellipse;whiteSpace=wrap;html=1;fontSize=10;" vertex="1" parent="1">
          <mxGeometry x="160" y="531.5" width="70" height="24" as="geometry" />
        </mxCell>
        <mxCell id="V3SeGW7TbHU31iKSQvi4-195" value="&lt;font&gt;Core&lt;/font&gt;" style="shape=hexagon;perimeter=hexagonPerimeter2;whiteSpace=wrap;html=1;fixedSize=1;fontFamily=Helvetica;fontSize=10;labelBackgroundColor=none;fillColor=#fad9d5;strokeColor=#ae4132;" vertex="1" parent="1">
          <mxGeometry x="160" y="447.5" width="70" height="40" as="geometry" />
        </mxCell>
        <mxCell id="V3SeGW7TbHU31iKSQvi4-196" value="Service&lt;div&gt;(Use case)&lt;/div&gt;" style="rounded=0;whiteSpace=wrap;html=1;fillColor=#d0cee2;strokeColor=#56517e;fontSize=10;" vertex="1" parent="1">
          <mxGeometry x="160" y="494.5" width="70" height="30" as="geometry" />
        </mxCell>
        <mxCell id="V3SeGW7TbHU31iKSQvi4-202" value="" style="endArrow=classic;html=1;rounded=0;strokeColor=default;align=center;verticalAlign=middle;fontFamily=Helvetica;fontSize=10;fontColor=default;labelBackgroundColor=default;" edge="1" parent="1">
          <mxGeometry width="50" height="50" relative="1" as="geometry">
            <mxPoint x="160" y="430.5" as="sourcePoint" />
            <mxPoint x="230" y="430" as="targetPoint" />
          </mxGeometry>
        </mxCell>
        <mxCell id="V3SeGW7TbHU31iKSQvi4-204" value="User" style="shape=umlActor;verticalLabelPosition=bottom;verticalAlign=top;html=1;outlineConnect=0;fontFamily=Helvetica;fontSize=11;fontColor=default;labelBackgroundColor=default;" vertex="1" parent="1">
          <mxGeometry x="180" y="283" width="30" height="60" as="geometry" />
        </mxCell>
        <mxCell id="V3SeGW7TbHU31iKSQvi4-207" value="Dependency" style="text;html=1;align=center;verticalAlign=middle;whiteSpace=wrap;rounded=0;fontFamily=Helvetica;fontSize=10;fontColor=default;labelBackgroundColor=default;" vertex="1" parent="1">
          <mxGeometry x="160" y="408" width="60" height="30" as="geometry" />
        </mxCell>
        <mxCell id="V3SeGW7TbHU31iKSQvi4-208" value="WeatheAPI architecture (hexagonal pattern)" style="text;html=1;align=center;verticalAlign=middle;whiteSpace=wrap;rounded=0;fontFamily=Helvetica;fontSize=13;fontColor=default;labelBackgroundColor=default;" vertex="1" parent="1">
          <mxGeometry x="305" y="191" width="280" height="30" as="geometry" />
        </mxCell>
      </root>
    </mxGraphModel>
  </diagram>
</mxfile>
